<?xml version="1.0" encoding="UTF-8" standalone="no"?>
<!DOCTYPE svg PUBLIC "-//W3C//DTD SVG 1.1//EN"
 "http://www.w3.org/Graphics/SVG/1.1/DTD/svg11.dtd">
<!-- Generated by graphviz version 2.50.0 (20211204.2007)
 -->
<!-- Title: main Pages: 1 -->
<svg width="225pt" height="78pt"
 viewBox="0.00 0.00 225.00 78.22" xmlns="http://www.w3.org/2000/svg" xmlns:xlink="http://www.w3.org/1999/xlink">
<g id="graph0" class="graph" transform="scale(1 1) rotate(0) translate(4 74.22)">
<title>main</title>
<polygon fill="white" stroke="transparent" points="-4,4 -4,-74.22 221,-74.22 221,4 -4,4"/>
<!-- Node1 -->
<g id="node1" class="node">
<title>Node1</title>
<g id="a_node1"><a xlink:title="Main Functiuon that reads an array of {0, 1, 2} and use the Dutch National Flag 3&#45;Way sort algorithm ...">
<polygon fill="#bfbfbf" stroke="black" points="0,-38.5 0,-57.5 38,-57.5 38,-38.5 0,-38.5"/>
<text text-anchor="middle" x="19" y="-45.5" font-family="Helvetica,sans-Serif" font-size="10.00">main</text>
</a>
</g>
</g>
<!-- Node2 -->
<g id="node2" class="node">
<title>Node2</title>
<g id="a_node2"><a xlink:href="../../d5/d4f/dnf__sort_8c.html#ab346f983a48549dd329d0259913a620e" target="_top" xlink:title="for assert">
<polygon fill="white" stroke="black" points="169,-38.5 169,-57.5 217,-57.5 217,-38.5 169,-38.5"/>
<text text-anchor="middle" x="193" y="-45.5" font-family="Helvetica,sans-Serif" font-size="10.00">dnfSort</text>
</a>
</g>
</g>
<!-- Node1&#45;&gt;Node2 -->
<g id="edge1" class="edge">
<title>Node1&#45;&gt;Node2</title>
<path fill="none" stroke="midnightblue" d="M38.08,-56.09C48.38,-60.26 61.66,-64.89 74,-67 99.85,-71.41 107.1,-71.07 133,-67 141.71,-65.63 150.89,-63.19 159.34,-60.51"/>
<polygon fill="midnightblue" stroke="midnightblue" points="160.51,-63.81 168.87,-57.3 158.27,-57.18 160.51,-63.81"/>
</g>
<!-- Node3 -->
<g id="node3" class="node">
<title>Node3</title>
<g id="a_node3"><a xlink:href="../../d5/d4f/dnf__sort_8c.html#a6953115b53b3f9e0479c453a29fbf7fd" target="_top" xlink:title="Print an array containing int8_t elements.">
<polygon fill="white" stroke="black" points="74,-38.5 74,-57.5 133,-57.5 133,-38.5 74,-38.5"/>
<text text-anchor="middle" x="103.5" y="-45.5" font-family="Helvetica,sans-Serif" font-size="10.00">printArray</text>
</a>
</g>
</g>
<!-- Node1&#45;&gt;Node3 -->
<g id="edge2" class="edge">
<title>Node1&#45;&gt;Node3</title>
<path fill="none" stroke="midnightblue" d="M38.31,-48C45.82,-48 54.81,-48 63.65,-48"/>
<polygon fill="midnightblue" stroke="midnightblue" points="63.87,-51.5 73.87,-48 63.87,-44.5 63.87,-51.5"/>
</g>
<!-- Node4 -->
<g id="node4" class="node">
<title>Node4</title>
<g id="a_node4"><a xlink:href="../../d5/d4f/dnf__sort_8c.html#aa8dca7b867074164d5f45b0f3851269d" target="_top" xlink:title="Self&#45;test implementations.">
<polygon fill="white" stroke="black" points="87,-0.5 87,-19.5 120,-19.5 120,-0.5 87,-0.5"/>
<text text-anchor="middle" x="103.5" y="-7.5" font-family="Helvetica,sans-Serif" font-size="10.00">test</text>
</a>
</g>
</g>
<!-- Node1&#45;&gt;Node4 -->
<g id="edge3" class="edge">
<title>Node1&#45;&gt;Node4</title>
<path fill="none" stroke="midnightblue" d="M38.31,-39.57C49.88,-34.23 64.99,-27.28 77.65,-21.45"/>
<polygon fill="midnightblue" stroke="midnightblue" points="79.12,-24.62 86.74,-17.26 76.2,-18.26 79.12,-24.62"/>
</g>
<!-- Node4&#45;&gt;Node2 -->
<g id="edge4" class="edge">
<title>Node4&#45;&gt;Node2</title>
<path fill="none" stroke="midnightblue" d="M120.14,-16.79C131.3,-21.64 146.68,-28.32 160.35,-34.26"/>
<polygon fill="midnightblue" stroke="midnightblue" points="159.35,-37.64 169.92,-38.41 162.14,-31.22 159.35,-37.64"/>
</g>
</g>
</svg>
