<?xml version="1.0" encoding="UTF-8" standalone="no"?>
<!DOCTYPE svg PUBLIC "-//W3C//DTD SVG 1.1//EN"
 "http://www.w3.org/Graphics/SVG/1.1/DTD/svg11.dtd">
<!-- Generated by graphviz version 6.0.1 (20220911.1526)
 -->
<!-- Title: main Pages: 1 -->
<svg width="225pt" height="77pt"
 viewBox="0.00 0.00 225.00 76.72" xmlns="http://www.w3.org/2000/svg" xmlns:xlink="http://www.w3.org/1999/xlink">
<g id="graph0" class="graph" transform="scale(1 1) rotate(0) translate(4 72.72)">
<title>main</title>
<!-- Node1 -->
<g id="node1" class="node">
<title>Node1</title>
<g id="a_node1"><a xlink:title="Main Functiuon that reads an array of {0, 1, 2} and use the Dutch National Flag 3&#45;Way sort algorithm ...">
<polygon fill="#999999" stroke="#666666" points="38,-56 0,-56 0,-37 38,-37 38,-56"/>
<text text-anchor="middle" x="19" y="-44" font-family="Helvetica,sans-Serif" font-size="10.00">main</text>
</a>
</g>
</g>
<!-- Node2 -->
<g id="node2" class="node">
<title>Node2</title>
<g id="a_node2"><a xlink:href="../../d5/d4f/dnf__sort_8c.html#ab346f983a48549dd329d0259913a620e" target="_top" xlink:title="for assert">
<polygon fill="white" stroke="#666666" points="217,-56 169,-56 169,-37 217,-37 217,-56"/>
<text text-anchor="middle" x="193" y="-44" font-family="Helvetica,sans-Serif" font-size="10.00">dnfSort</text>
</a>
</g>
</g>
<!-- Node1&#45;&gt;Node2 -->
<g id="edge1" class="edge">
<title>Node1&#45;&gt;Node2</title>
<path fill="none" stroke="#63b8ff" d="M38.08,-54.59C48.38,-58.76 61.66,-63.39 74,-65.5 99.85,-69.91 107.1,-69.57 133,-65.5 141.71,-64.13 150.89,-61.69 159.34,-59.01"/>
<polygon fill="#63b8ff" stroke="#63b8ff" points="160.51,-62.31 168.87,-55.8 158.27,-55.68 160.51,-62.31"/>
</g>
<!-- Node3 -->
<g id="node3" class="node">
<title>Node3</title>
<g id="a_node3"><a xlink:href="../../d5/d4f/dnf__sort_8c.html#a6953115b53b3f9e0479c453a29fbf7fd" target="_top" xlink:title="Print an array containing int8_t elements.">
<polygon fill="white" stroke="#666666" points="133,-56 74,-56 74,-37 133,-37 133,-56"/>
<text text-anchor="middle" x="103.5" y="-44" font-family="Helvetica,sans-Serif" font-size="10.00">printArray</text>
</a>
</g>
</g>
<!-- Node1&#45;&gt;Node3 -->
<g id="edge2" class="edge">
<title>Node1&#45;&gt;Node3</title>
<path fill="none" stroke="#63b8ff" d="M38.31,-46.5C45.82,-46.5 54.81,-46.5 63.65,-46.5"/>
<polygon fill="#63b8ff" stroke="#63b8ff" points="63.87,-50 73.87,-46.5 63.87,-43 63.87,-50"/>
</g>
<!-- Node4 -->
<g id="node4" class="node">
<title>Node4</title>
<g id="a_node4"><a xlink:href="../../d5/d4f/dnf__sort_8c.html#aa8dca7b867074164d5f45b0f3851269d" target="_top" xlink:title="Self&#45;test implementations.">
<polygon fill="white" stroke="#666666" points="120,-19 87,-19 87,0 120,0 120,-19"/>
<text text-anchor="middle" x="103.5" y="-7" font-family="Helvetica,sans-Serif" font-size="10.00">test</text>
</a>
</g>
</g>
<!-- Node1&#45;&gt;Node4 -->
<g id="edge3" class="edge">
<title>Node1&#45;&gt;Node4</title>
<path fill="none" stroke="#63b8ff" d="M38.31,-38.29C49.77,-33.15 64.7,-26.45 77.27,-20.81"/>
<polygon fill="#63b8ff" stroke="#63b8ff" points="79.05,-23.85 86.74,-16.57 76.19,-17.47 79.05,-23.85"/>
</g>
<!-- Node4&#45;&gt;Node2 -->
<g id="edge4" class="edge">
<title>Node4&#45;&gt;Node2</title>
<path fill="none" stroke="#63b8ff" d="M120.14,-16.11C131.14,-20.76 146.24,-27.15 159.77,-32.87"/>
<polygon fill="#63b8ff" stroke="#63b8ff" points="158.68,-36.21 169.25,-36.88 161.41,-29.76 158.68,-36.21"/>
</g>
</g>
</svg>
